{
  "accessors": [
    {
      "bufferView": 2,
      "componentType": 5126,
      "count": 2178,
      "max": [
        1.0,
        0.9999999403953552,
        1.0
      ],
      "min": [
        -0.9999999403953552,
        -0.9999999403953552,
        -0.9432082176208496
      ],
      "type": "VEC3"
    },
    {
      "bufferView": 2,
      "byteOffset": 26136,
      "componentType": 5126,
      "count": 2178,
      "max": [
        0.9959715008735657,
        0.9961614608764648,
        0.9972761273384094
      ],
      "min": [
        -0.9959715604782104,
        -0.9961614608764648,
        -0.9195892214775085
      ],
      "type": "VEC3"
    },
    {
      "bufferView": 1,
      "componentType": 5126,
      "count": 2178,
      "max": [
        1.0,
        1.0
      ],
      "min": [
        0.0,
        0.0
      ],
      "type": "VEC2"
    },
    {
      "bufferView": 0,
      "componentType": 5125,
      "count": 2178,
      "type": "SCALAR"
    },
    {
      "bufferView": 2,
      "byteOffset": 52272,
      "componentType": 5126,
      "count": 2315,
      "max": [
        0.9484788775444031,
        1.0127918720245361,
        1.0016489028930664
      ],
      "min": [
        -1.0087165832519531,
        -1.0265377759933472,
        -0.9076517224311829
      ],
      "type": "VEC3"
    },
    {
      "bufferView": 2,
      "byteOffset": 80052,
      "componentType": 5126,
      "count": 2315,
      "max": [
        0.9963463544845581,
        0.9859566688537598,
        0.9985400438308716
      ],
      "min": [
        -0.9914019703865051,
        -0.9961612820625305,
        -0.9982745051383972
      ],
      "type": "VEC3"
    },
    {
      "bufferView": 1,
      "byteOffset": 17424,
      "componentType": 5126,
      "count": 2315,
      "max": [
        1.0,
        1.0
      ],
      "min": [
        0.0,
        0.0
      ],
      "type": "VEC2"
    },
    {
      "bufferView": 0,
      "byteOffset": 8712,
      "componentType": 5125,
      "count": 2757,
      "type": "SCALAR"
    },
    {
      "bufferView": 2,
      "byteOffset": 107832,
      "componentType": 5126,
      "count": 347,
      "max": [
        0.4620096683502197,
        0.6136019825935364,
        0.9906516671180725
      ],
      "min": [
        -0.4596380591392517,
        -0.48228928446769714,
        -1.0554907321929932
      ],
      "type": "VEC3"
    },
    {
      "bufferView": 2,
      "byteOffset": 111996,
      "componentType": 5126,
      "count": 347,
      "max": [
        0.9152461290359497,
        0.9952391386032104,
        0.9841402769088745
      ],
      "min": [
        -0.9558782577514648,
        -0.971797525882721,
        -0.9972761273384094
      ],
      "type": "VEC3"
    },
    {
      "bufferView": 1,
      "byteOffset": 35944,
      "componentType": 5126,
      "count": 347,
      "max": [
        1.0,
        1.0
      ],
      "min": [
        0.0,
        0.0
      ],
      "type": "VEC2"
    },
    {
      "bufferView": 0,
      "byteOffset": 19740,
      "componentType": 5125,
      "count": 405,
      "type": "SCALAR"
    }
  ],
  "asset": {
    "extras": {
      "author": "JasperTobias (https://sketchfab.com/JasperTobias)",
      "license": "CC-BY-4.0 (http://creativecommons.org/licenses/by/4.0/)",
      "source": "https://sketchfab.com/3d-models/lowpoly-earth-ce0cce9b528b47c7984bf0b2b600d705",
      "title": "LowPoly Earth"
    },
    "generator": "Sketchfab-12.68.0",
    "version": "2.0"
  },
  "bufferViews": [
    {
      "buffer": 0,
      "byteLength": 21360,
      "name": "floatBufferViews",
      "target": 34963
    },
    {
      "buffer": 0,
      "byteLength": 38720,
      "byteOffset": 21360,
      "byteStride": 8,
      "name": "floatBufferViews",
      "target": 34962
    },
    {
      "buffer": 0,
      "byteLength": 116160,
      "byteOffset": 60080,
      "byteStride": 12,
      "name": "floatBufferViews",
      "target": 34962
    }
  ],
  "buffers": [
    {
      "byteLength": 176240,
      "uri": "scene.bin"
    }
  ],
  "materials": [
    {
      "doubleSided": true,
      "name": "watr",
      "pbrMetallicRoughness": {
        "baseColorFactor": [
          0.0370317,
          0.159472,
          0.284643,
          1.0
        ],
        "metallicFactor": 0.0
      }
    },
    {
      "doubleSided": true,
      "name": "Lampd",
      "pbrMetallicRoughness": {
        "baseColorFactor": [
          0.207557,
          0.354688,
          0.0653474,
          1.0
        ],
        "metallicFactor": 0.0
      }
    },
    {
      "doubleSided": true,
      "name": "Lampd_Ice",
      "pbrMetallicRoughness": {
        "baseColorFactor": [
          0.586182,
          0.820789,
          0.677521,
          1.0
        ],
        "metallicFactor": 0.0
      }
    }
  ],
  "meshes": [
    {
      "name": "URF-Height_watr_0",
      "primitives": [
        {
          "attributes": {
            "NORMAL": 1,
            "POSITION": 0,
            "TEXCOORD_0": 2
          },
          "indices": 3,
          "material": 0,
          "mode": 4
        }
      ]
    },
    {
      "name": "URF-Height_Lampd_0",
      "primitives": [
        {
          "attributes": {
            "NORMAL": 5,
            "POSITION": 4,
            "TEXCOORD_0": 6
          },
          "indices": 7,
          "material": 1,
          "mode": 4
        }
      ]
    },
    {
      "name": "URF-Height_Lampd_Ice_0",
      "primitives": [
        {
          "attributes": {
            "NORMAL": 9,
            "POSITION": 8,
            "TEXCOORD_0": 10
          },
          "indices": 11,
          "material": 2,
          "mode": 4
        }
      ]
    }
  ],
  "nodes": [
    {
      "children": [
        1
      ],
      "matrix": [
        1.0,
        0.0,
        0.0,
        0.0,
        0.0,
        2.220446049250313e-16,
        -1.0,
        0.0,
        0.0,
        1.0,
        2.220446049250313e-16,
        0.0,
        0.0,
        0.0,
        0.0,
        1.0
      ],
      "name": "Sketchfab_model"
    },
    {
      "children": [
        2
      ],
      "matrix": [
        1.0,
        0.0,
        0.0,
        0.0,
        0.0,
        0.0,
        1.0,
        0.0,
        0.0,
        -1.0,
        0.0,
        0.0,
        0.0,
        0.0,
        0.0,
        1.0
      ],
      "name": "91aa8ae705db41b9a77132a467107dd2.fbx"
    },
    {
      "children": [
        3
      ],
      "name": "RootNode"
    },
    {
      "children": [
        4,
        5,
        6
      ],
      "matrix": [
        99.86371360033668,
        -6.938893903907228e-16,
        -5.2190713685417345,
        0.0,
        -5.219071368541729,
        -4.371139006309477e-06,
        -99.86371360033658,
        0.0,
        -2.281328639885949e-07,
        99.9999999999999,
        -4.365181749399483e-06,
        0.0,
        0.0,
        0.0,
        0.0,
        1.0
      ],
      "name": "URF-Height"
    },
    {
      "mesh": 0,
      "name": "URF-Height_watr_0"
    },
    {
      "mesh": 1,
      "name": "URF-Height_Lampd_0"
    },
    {
      "mesh": 2,
      "name": "URF-Height_Lampd_Ice_0"
    }
  ],
  "scene": 0,
  "scenes": [
    {
      "name": "Sketchfab_Scene",
      "nodes": [
        0
      ]
    }
  ]
}
